# xmcd CD database file
#
# Track frame offsets:
#	150
#	20272
#	40126
#	48765
#	57422
#	65761
#	73941
#	82072
#	90660
#	99134
#	106756
#	114694
#	123040
#	142212
#	161467
#	170512
#	179157
#	187589
#	195890
#	204221
#	212491
#	220777
#	228873
#	236942
#	245080
#	248132
#	251141
#	254346
#	257425
#	267749
#	281564
#	294571
#	310585
#
# Disc length: 4333 seconds
#
# Revision: 0
# Processed by: cddbd v1.5.1PL2 Copyright (c) Steve Scherf et al.
# Submitted via: CDex 1.51
#
DISCID=df10eb21
DTITLE=Jamey Aebersold - Jazz Keyboard Harmony Practice CD
DYEAR=1900
DGENRE=Jazz
TTITLE0=Chapter 4
TTITLE1=Chapter 5
TTITLE2=Chapter 3
TTITLE3=Chapter 6
TTITLE4=Chapter 8
TTITLE5=Chapter 7
TTITLE6=Chapter 7
TTITLE7=Chapter 8
TTITLE8=Chapter 7
TTITLE9=Chapter 4
TTITLE10=Chapter 6
TTITLE11=Chapter 9
TTITLE12=Chapter 3
TTITLE13=Chapter 6
TTITLE14=Chapter 3
TTITLE15=Chapter 5
TTITLE16=Chapter 9
TTITLE17=Chapter 8
TTITLE18=Chapter 5
TTITLE19=Chapter 4
TTITLE20=Chapter 7
TTITLE21=Chapter 8
TTITLE22=Chapter 7
TTITLE23=Chapter 9
TTITLE24=Chapter 3
TTITLE25=Chapter 7
TTITLE26=Chapter 6
TTITLE27=Chapter 7
TTITLE28=Chapter 3
TTITLE29=Shews Blues
TTITLE30=Blues for the Bird
TTITLE31=Rhythm
TTITLE32=A Minor Thing
EXTD=
EXTT0=
EXTT1=
EXTT2=
EXTT3=
EXTT4=
EXTT5=
EXTT6=
EXTT7=
EXTT8=
EXTT9=
EXTT10=
EXTT11=
EXTT12=
EXTT13=
EXTT14=
EXTT15=
EXTT16=
EXTT17=
EXTT18=
EXTT19=
EXTT20=
EXTT21=
EXTT22=
EXTT23=
EXTT24=
EXTT25=
EXTT26=
EXTT27=
EXTT28=
EXTT29=
EXTT30=
EXTT31=
EXTT32=
PLAYORDER=
